<mxfile host="drawio-plugin" modified="2023-05-30T20:54:03.720Z" agent="5.0 (X11; Linux x86_64) AppleWebKit/537.36 (KHTML, like Gecko) Chrome/104.0.5112.102 Safari/537.36" etag="6kOLdySekoyLMjNpL0C0" version="20.5.3" type="embed"><diagram id="6ahD1kxwUnV9zVqc0lAo" name="Page-1"><mxGraphModel dx="1298" dy="757" grid="1" gridSize="10" guides="1" tooltips="1" connect="1" arrows="1" fold="1" page="1" pageScale="1" pageWidth="827" pageHeight="1169" math="0" shadow="0"><root><mxCell id="0"/><mxCell id="1" parent="0"/><mxCell id="2" value="ff" style="ellipse;html=1;shape=startState;fillColor=#000000;strokeColor=#7EA6E0;" parent="1" vertex="1"><mxGeometry x="110" y="80" width="30" height="30" as="geometry"/></mxCell><mxCell id="3" value="" style="edgeStyle=orthogonalEdgeStyle;html=1;verticalAlign=bottom;endArrow=open;endSize=8;strokeColor=#7EA6E0;rounded=0;entryX=0.5;entryY=0;entryDx=0;entryDy=0;" parent="1" source="2" target="4" edge="1"><mxGeometry relative="1" as="geometry"><mxPoint x="100" y="140" as="targetPoint"/></mxGeometry></mxCell><mxCell id="4" value="Find the visibility scope" style="rounded=1;whiteSpace=wrap;html=1;arcSize=40;fillColor=#ffe6cc;strokeColor=#d79b00;" parent="1" vertex="1"><mxGeometry x="42" y="150" width="165" height="40" as="geometry"/></mxCell><mxCell id="5" value="" style="edgeStyle=orthogonalEdgeStyle;html=1;verticalAlign=bottom;endArrow=open;endSize=8;strokeColor=#7EA6E0;rounded=0;entryX=0.5;entryY=0;entryDx=0;entryDy=0;" parent="1" source="4" target="16" edge="1"><mxGeometry relative="1" as="geometry"><mxPoint x="125" y="240" as="targetPoint"/></mxGeometry></mxCell><mxCell id="11" value="Use" style="endArrow=open;endSize=12;dashed=1;html=1;rounded=0;entryX=0;entryY=0.5;entryDx=0;entryDy=0;" parent="1" target="10" edge="1"><mxGeometry width="160" relative="1" as="geometry"><mxPoint x="210" y="170" as="sourcePoint"/><mxPoint x="240" y="260" as="targetPoint"/></mxGeometry></mxCell><mxCell id="16" value="Get the current state in the active stack" style="rounded=1;whiteSpace=wrap;html=1;arcSize=40;fillColor=#ffe6cc;strokeColor=#d79b00;" parent="1" vertex="1"><mxGeometry x="42" y="250" width="165" height="40" as="geometry"/></mxCell><mxCell id="17" value="The stack is empty" style="rhombus;whiteSpace=wrap;html=1;fillColor=#ffe6cc;strokeColor=#d79b00;" parent="1" vertex="1"><mxGeometry x="59.5" y="320" width="130" height="60" as="geometry"/></mxCell><mxCell id="18" value="no" style="edgeStyle=orthogonalEdgeStyle;html=1;align=left;verticalAlign=bottom;endArrow=open;endSize=8;strokeColor=#7EA6E0;rounded=0;entryX=0;entryY=0.5;entryDx=0;entryDy=0;" parent="1" source="17" target="32" edge="1"><mxGeometry x="-1" relative="1" as="geometry"><mxPoint x="260" y="350" as="targetPoint"/></mxGeometry></mxCell><mxCell id="19" value="yes" style="edgeStyle=orthogonalEdgeStyle;html=1;align=left;verticalAlign=top;endArrow=open;endSize=8;strokeColor=#7EA6E0;rounded=0;" parent="1" source="17" target="21" edge="1"><mxGeometry x="-1" relative="1" as="geometry"><mxPoint x="100" y="460" as="targetPoint"/></mxGeometry></mxCell><mxCell id="20" value="" style="edgeStyle=orthogonalEdgeStyle;html=1;verticalAlign=bottom;endArrow=open;endSize=8;strokeColor=#7EA6E0;rounded=0;entryX=0.5;entryY=0;entryDx=0;entryDy=0;exitX=0.5;exitY=1;exitDx=0;exitDy=0;" parent="1" source="16" target="17" edge="1"><mxGeometry relative="1" as="geometry"><mxPoint x="134.5" y="260" as="targetPoint"/><mxPoint x="134.5" y="200" as="sourcePoint"/></mxGeometry></mxCell><mxCell id="21" value="Throw an exception &quot;Method Not Found&quot;" style="rounded=1;whiteSpace=wrap;html=1;arcSize=40;fillColor=#ffe6cc;strokeColor=#d79b00;" parent="1" vertex="1"><mxGeometry x="64.5" y="710" width="120" height="40" as="geometry"/></mxCell><mxCell id="22" value="" style="edgeStyle=orthogonalEdgeStyle;html=1;verticalAlign=bottom;endArrow=open;endSize=8;strokeColor=#7EA6E0;rounded=0;" parent="1" source="21" edge="1"><mxGeometry relative="1" as="geometry"><mxPoint x="124.5" y="810" as="targetPoint"/></mxGeometry></mxCell><mxCell id="23" value="" style="ellipse;html=1;shape=endState;fillColor=#000000;strokeColor=#7EA6E0;" parent="1" vertex="1"><mxGeometry x="110" y="810" width="30" height="30" as="geometry"/></mxCell><mxCell id="25" value="" style="edgeStyle=orthogonalEdgeStyle;html=1;verticalAlign=bottom;endArrow=open;endSize=8;strokeColor=#7EA6E0;rounded=0;entryX=0.5;entryY=0;entryDx=0;entryDy=0;" parent="1" source="24" target="26" edge="1"><mxGeometry relative="1" as="geometry"><mxPoint x="575" y="478" as="targetPoint"/></mxGeometry></mxCell><mxCell id="26" value="It cans" style="rhombus;whiteSpace=wrap;html=1;fillColor=#ffe6cc;strokeColor=#d79b00;" parent="1" vertex="1"><mxGeometry x="510" y="469" width="130" height="60" as="geometry"/></mxCell><mxCell id="27" value="no" style="edgeStyle=orthogonalEdgeStyle;html=1;align=left;verticalAlign=bottom;endArrow=open;endSize=8;strokeColor=#7EA6E0;rounded=0;" parent="1" target="28" edge="1"><mxGeometry x="-1" relative="1" as="geometry"><mxPoint x="750" y="499" as="targetPoint"/><mxPoint x="640" y="498.5" as="sourcePoint"/></mxGeometry></mxCell><mxCell id="28" value="" style="ellipse;html=1;shape=endState;fillColor=#000000;strokeColor=#7EA6E0;" parent="1" vertex="1"><mxGeometry x="717" y="484" width="30" height="30" as="geometry"/></mxCell><mxCell id="29" value="no" style="edgeStyle=orthogonalEdgeStyle;html=1;align=left;verticalAlign=bottom;endArrow=open;endSize=8;strokeColor=#7EA6E0;rounded=0;exitX=0.5;exitY=0;exitDx=0;exitDy=0;entryX=1;entryY=0.5;entryDx=0;entryDy=0;" parent="1" source="28" target="35" edge="1"><mxGeometry x="-1" relative="1" as="geometry"><mxPoint x="390" y="270" as="targetPoint"/><mxPoint x="199.5" y="360" as="sourcePoint"/></mxGeometry></mxCell><mxCell id="32" value="ff" style="ellipse;html=1;shape=startState;fillColor=#000000;strokeColor=#7EA6E0;" parent="1" vertex="1"><mxGeometry x="560" y="335" width="30" height="30" as="geometry"/></mxCell><mxCell id="34" value="" style="edgeStyle=orthogonalEdgeStyle;html=1;verticalAlign=bottom;endArrow=open;endSize=8;strokeColor=#7EA6E0;rounded=0;entryX=0.5;entryY=0;entryDx=0;entryDy=0;exitX=0.5;exitY=1;exitDx=0;exitDy=0;" parent="1" source="32" target="24" edge="1"><mxGeometry relative="1" as="geometry"><mxPoint x="569.5" y="240" as="targetPoint"/><mxPoint x="570" y="200" as="sourcePoint"/></mxGeometry></mxCell><mxCell id="35" value="Move to next active state" style="rounded=1;whiteSpace=wrap;html=1;arcSize=40;fillColor=#ffe6cc;strokeColor=#d79b00;" parent="1" vertex="1"><mxGeometry x="270" y="250" width="165" height="40" as="geometry"/></mxCell><mxCell id="36" value="" style="edgeStyle=orthogonalEdgeStyle;html=1;verticalAlign=bottom;endArrow=open;endSize=8;strokeColor=#7EA6E0;rounded=0;exitX=0;exitY=0.5;exitDx=0;exitDy=0;" parent="1" source="35" edge="1"><mxGeometry relative="1" as="geometry"><mxPoint x="210" y="270" as="targetPoint"/><mxPoint x="134.5" y="300" as="sourcePoint"/></mxGeometry></mxCell><mxCell id="38" value="yes" style="edgeStyle=orthogonalEdgeStyle;html=1;align=left;verticalAlign=top;endArrow=open;endSize=8;strokeColor=#7EA6E0;rounded=0;exitX=0.5;exitY=1;exitDx=0;exitDy=0;entryX=0.5;entryY=0;entryDx=0;entryDy=0;" parent="1" source="26" target="39" edge="1"><mxGeometry x="-1" relative="1" as="geometry"><mxPoint x="575" y="609" as="targetPoint"/><mxPoint x="94.5" y="369" as="sourcePoint"/></mxGeometry></mxCell><mxCell id="39" value="Call the method" style="rounded=1;whiteSpace=wrap;html=1;arcSize=40;fillColor=#ffe6cc;strokeColor=#d79b00;" parent="1" vertex="1"><mxGeometry x="490" y="564" width="170" height="40" as="geometry"/></mxCell><mxCell id="41" value="Use" style="endArrow=open;endSize=12;dashed=1;html=1;rounded=0;exitX=1;exitY=0.5;exitDx=0;exitDy=0;entryX=0.5;entryY=0;entryDx=0;entryDy=0;" parent="1" source="39" target="40" edge="1"><mxGeometry width="160" relative="1" as="geometry"><mxPoint x="12" y="134" as="sourcePoint"/><mxPoint x="-80" y="134" as="targetPoint"/><Array as="points"><mxPoint x="705" y="584"/></Array></mxGeometry></mxCell><mxCell id="42" value="Sent result to proxy" style="rounded=1;whiteSpace=wrap;html=1;arcSize=40;fillColor=#ffe6cc;strokeColor=#d79b00;" parent="1" vertex="1"><mxGeometry x="492" y="640" width="165" height="40" as="geometry"/></mxCell><mxCell id="43" value="" style="edgeStyle=orthogonalEdgeStyle;html=1;verticalAlign=bottom;endArrow=open;endSize=8;strokeColor=#7EA6E0;rounded=0;entryX=0.5;entryY=0;entryDx=0;entryDy=0;exitX=0.5;exitY=1;exitDx=0;exitDy=0;" parent="1" source="39" target="42" edge="1"><mxGeometry relative="1" as="geometry"><mxPoint x="585" y="479" as="targetPoint"/><mxPoint x="590" y="470" as="sourcePoint"/></mxGeometry></mxCell><mxCell id="44" value="Exit __call() and return result" style="rounded=1;whiteSpace=wrap;html=1;arcSize=40;fillColor=#ffe6cc;strokeColor=#d79b00;" parent="1" vertex="1"><mxGeometry x="260" y="710" width="165" height="40" as="geometry"/></mxCell><mxCell id="45" value="" style="edgeStyle=orthogonalEdgeStyle;html=1;verticalAlign=bottom;endArrow=open;endSize=8;strokeColor=#7EA6E0;rounded=0;entryX=0.5;entryY=0;entryDx=0;entryDy=0;exitX=0.5;exitY=1;exitDx=0;exitDy=0;" parent="1" source="42" target="46" edge="1"><mxGeometry relative="1" as="geometry"><mxPoint x="584.5" y="650" as="targetPoint"/><mxPoint x="585" y="614" as="sourcePoint"/></mxGeometry></mxCell><mxCell id="46" value="" style="ellipse;html=1;shape=endState;fillColor=#000000;strokeColor=#7EA6E0;" parent="1" vertex="1"><mxGeometry x="560" y="715" width="30" height="30" as="geometry"/></mxCell><mxCell id="47" value="" style="edgeStyle=orthogonalEdgeStyle;html=1;verticalAlign=bottom;endArrow=open;endSize=8;strokeColor=#7EA6E0;rounded=0;entryX=1;entryY=0.5;entryDx=0;entryDy=0;exitX=0;exitY=0.5;exitDx=0;exitDy=0;" parent="1" source="46" target="44" edge="1"><mxGeometry relative="1" as="geometry"><mxPoint x="625" y="725" as="targetPoint"/><mxPoint x="624.5" y="690" as="sourcePoint"/></mxGeometry></mxCell><mxCell id="48" value="" style="edgeStyle=orthogonalEdgeStyle;html=1;verticalAlign=bottom;endArrow=open;endSize=8;strokeColor=#7EA6E0;rounded=0;entryX=1;entryY=0.5;entryDx=0;entryDy=0;exitX=0.5;exitY=1;exitDx=0;exitDy=0;" parent="1" source="44" target="23" edge="1"><mxGeometry relative="1" as="geometry"><mxPoint x="635" y="735" as="targetPoint"/><mxPoint x="634.5" y="700" as="sourcePoint"/></mxGeometry></mxCell><mxCell id="51" value="Proxy instance" style="swimlane;whiteSpace=wrap;html=1;strokeColor=#7EA6E0;" parent="1" vertex="1"><mxGeometry x="10" y="20" width="450" height="860" as="geometry"/></mxCell><mxCell id="10" value="debug_backtrace()" style="shape=process;whiteSpace=wrap;html=1;backgroundOutline=1;fillColor=#f5f5f5;fontColor=#333333;strokeColor=#666666;" parent="51" vertex="1"><mxGeometry x="470" y="135" width="140" height="30" as="geometry"/></mxCell><mxCell id="7" value="Call&amp;nbsp;&lt;span aria-describedby=&quot;tippy-19&quot; class=&quot;verupdated&quot;&gt;caught&lt;/span&gt;&amp;nbsp;by __call" style="text;html=1;strokeColor=none;fillColor=none;align=center;verticalAlign=middle;whiteSpace=wrap;rounded=0;" parent="51" vertex="1"><mxGeometry x="20" y="30" width="190" height="30" as="geometry"/></mxCell><mxCell id="52" value="State instance" style="swimlane;whiteSpace=wrap;html=1;strokeColor=#7EA6E0;" parent="1" vertex="1"><mxGeometry x="460" y="20" width="360" height="860" as="geometry"/></mxCell><mxCell id="40" value="Closure::call() or bindTo()" style="shape=process;whiteSpace=wrap;html=1;backgroundOutline=1;fillColor=#f5f5f5;fontColor=#333333;strokeColor=#666666;" parent="52" vertex="1"><mxGeometry x="150" y="740" width="190" height="30" as="geometry"/></mxCell><mxCell id="24" value="Ask if the state can&amp;nbsp;execute the method,&lt;br&gt;And pass a callback for the result" style="rounded=1;whiteSpace=wrap;html=1;arcSize=40;fillColor=#ffe6cc;strokeColor=#d79b00;" parent="52" vertex="1"><mxGeometry x="5" y="370" width="220" height="40" as="geometry"/></mxCell></root></mxGraphModel></diagram></mxfile>